<svg width="17" height="20" viewBox="0 0 17 20" fill="none" xmlns="http://www.w3.org/2000/svg">
<path d="M14.0172 10.5555C14.0078 8.95703 14.732 7.75234 16.1945 6.86406C15.3766 5.69219 14.1391 5.04766 12.5078 4.92344C10.9633 4.80156 9.27344 5.82344 8.65469 5.82344C8.00078 5.82344 6.50547 4.96563 5.32891 4.96563C2.90078 5.00313 0.320312 6.90156 0.320312 10.7641C0.320312 11.9055 0.528906 13.0844 0.946094 14.2984C1.50391 15.8969 3.51484 19.8133 5.6125 19.75C6.70937 19.7242 7.48516 18.9719 8.9125 18.9719C10.2977 18.9719 11.0148 19.75 12.2383 19.75C14.3547 19.7195 16.1734 16.1594 16.7031 14.5563C13.8648 13.218 14.0172 10.6375 14.0172 10.5555ZM11.5539 3.40703C12.7422 1.99609 12.6344 0.711719 12.5992 0.25C11.5492 0.310938 10.3352 0.964844 9.64375 1.76875C8.88203 2.63125 8.43437 3.69766 8.53047 4.9C9.66484 4.98672 10.7008 4.40313 11.5539 3.40703Z" fill="#FAFAFA"/>
</svg>
