<svg width="21" height="20" viewBox="0 0 21 20" fill="none" xmlns="http://www.w3.org/2000/svg">
<path d="M19.956 8.15401C20.079 8.81301 20.146 9.50201 20.146 10.221C20.146 15.845 16.382 19.844 10.697 19.844C9.40418 19.8444 8.12393 19.59 6.92943 19.0955C5.73492 18.6009 4.64957 17.8758 3.73539 16.9616C2.82121 16.0475 2.09612 14.9621 1.60155 13.7676C1.10699 12.5731 0.852634 11.2929 0.853028 10C0.852634 8.70716 1.10699 7.42691 1.60155 6.2324C2.09612 5.0379 2.82121 3.95255 3.73539 3.03837C4.64957 2.12419 5.73492 1.3991 6.92943 0.904533C8.12393 0.409966 9.40418 0.155612 10.697 0.156006C13.355 0.156006 15.576 1.13401 17.28 2.72201L14.505 5.49701V5.49001C13.472 4.50601 12.161 4.00101 10.697 4.00101C7.44903 4.00101 4.80903 6.74501 4.80903 9.99401C4.80903 13.242 7.44903 15.992 10.697 15.992C13.644 15.992 15.65 14.307 16.062 11.993H10.697V8.15401H19.957H19.956Z" fill="#FAFAFA"/>
</svg>
