<svg width="16" height="13" viewBox="0 0 16 13" fill="none" xmlns="http://www.w3.org/2000/svg">
<path d="M8.74667 0.373964L5.05333 4.0673C4.80667 4.31396 4.66667 4.65396 4.66667 5.0073V11.6673C4.66667 12.4006 5.26667 13.0006 6 13.0006H12C12.5333 13.0006 13.0133 12.6806 13.2267 12.194L15.4 7.12063C15.96 5.80063 14.9933 4.33396 13.56 4.33396H9.79333L10.4267 1.28063C10.4933 0.947297 10.3933 0.607297 10.1533 0.367297C9.76 -0.0193697 9.13333 -0.0193697 8.74667 0.373964ZM2 13.0006C2.73333 13.0006 3.33333 12.4006 3.33333 11.6673V6.33396C3.33333 5.60063 2.73333 5.00063 2 5.00063C1.26667 5.00063 0.666666 5.60063 0.666666 6.33396V11.6673C0.666666 12.4006 1.26667 13.0006 2 13.0006Z" fill="black" fill-opacity="0.54"/>
</svg>
