<svg width="12" height="8" viewBox="0 0 12 8" fill="none" xmlns="http://www.w3.org/2000/svg">
<path d="M2.77984 7.33335C3.11984 7.33335 3.43317 7.14002 3.57984 6.84002L4.5265 4.94669C4.61984 4.76002 4.6665 4.56002 4.6665 4.35335V1.33335C4.6665 0.966687 4.3665 0.666687 3.99984 0.666687H1.33317C0.966504 0.666687 0.666504 0.966687 0.666504 1.33335V4.00002C0.666504 4.36669 0.966504 4.66669 1.33317 4.66669H2.6665L1.97984 6.04002C1.67984 6.63335 2.11317 7.33335 2.77984 7.33335ZM9.4465 7.33335C9.7865 7.33335 10.0998 7.14002 10.2465 6.84002L11.1932 4.94669C11.2865 4.76002 11.3332 4.56002 11.3332 4.35335V1.33335C11.3332 0.966687 11.0332 0.666687 10.6665 0.666687H7.99984C7.63317 0.666687 7.33317 0.966687 7.33317 1.33335V4.00002C7.33317 4.36669 7.63317 4.66669 7.99984 4.66669H9.33317L8.6465 6.04002C8.3465 6.63335 8.77984 7.33335 9.4465 7.33335Z" fill="black" fill-opacity="0.54"/>
</svg>
