<svg width="12" height="12" viewBox="0 0 12 12" fill="none" xmlns="http://www.w3.org/2000/svg">
<path d="M8.21333 0H3.78667C3.61333 0 3.44 0.0733333 3.32 0.193333L0.193333 3.32C0.0733333 3.44 0 3.61333 0 3.78667V8.20667C0 8.38667 0.0733333 8.55333 0.193333 8.68L3.31333 11.8C3.44 11.9267 3.61333 12 3.78667 12H8.20667C8.38667 12 8.55333 11.9267 8.68 11.8067L11.8 8.68667C11.9267 8.56 11.9933 8.39333 11.9933 8.21333V3.78667C11.9933 3.60667 11.92 3.44 11.8 3.31333L8.68 0.193333C8.56 0.0733333 8.38667 0 8.21333 0ZM6 9.53333C5.52 9.53333 5.13333 9.14667 5.13333 8.66667C5.13333 8.18667 5.52 7.8 6 7.8C6.48 7.8 6.86667 8.18667 6.86667 8.66667C6.86667 9.14667 6.48 9.53333 6 9.53333ZM6 6.66667C5.63333 6.66667 5.33333 6.36667 5.33333 6V3.33333C5.33333 2.96667 5.63333 2.66667 6 2.66667C6.36667 2.66667 6.66667 2.96667 6.66667 3.33333V6C6.66667 6.36667 6.36667 6.66667 6 6.66667Z" fill="black" fill-opacity="0.54"/>
</svg>
