<svg width="10" height="15" viewBox="0 0 10 15" fill="none" xmlns="http://www.w3.org/2000/svg">
<path fill-rule="evenodd" clip-rule="evenodd" d="M9.66659 8.08C9.66659 7.76667 9.43992 7.51334 9.13325 7.42667C8.28659 7.19334 7.66659 6.42 7.66659 5.5V2.16667H8.33325C8.69992 2.16667 8.99992 1.86667 8.99992 1.5C8.99992 1.13334 8.69992 0.833336 8.33325 0.833336H1.66659C1.29992 0.833336 0.999919 1.13334 0.999919 1.5C0.999919 1.86667 1.29992 2.16667 1.66659 2.16667H2.33325V5.5C2.33325 6.42 1.71325 7.19334 0.866585 7.42667C0.559919 7.51334 0.333252 7.76667 0.333252 8.08V8.16667C0.333252 8.53334 0.633252 8.83334 0.999919 8.83334H4.31992L4.33325 13.5C4.33325 13.8667 4.63325 14.1667 4.99992 14.1667C5.36659 14.1667 5.66659 13.8667 5.66659 13.5L5.65325 8.83334H8.99992C9.36659 8.83334 9.66659 8.53334 9.66659 8.16667V8.08Z" fill="#212121"/>
</svg>
