<svg width="14" height="14" viewBox="0 0 14 14" fill="none" xmlns="http://www.w3.org/2000/svg">
<path d="M6.99333 0.333313C3.31333 0.333313 0.333328 3.31998 0.333328 6.99998C0.333328 10.68 3.31333 13.6666 6.99333 13.6666C10.68 13.6666 13.6667 10.68 13.6667 6.99998C13.6667 3.31998 10.68 0.333313 6.99333 0.333313ZM7 12.3333C4.05333 12.3333 1.66666 9.94665 1.66666 6.99998C1.66666 4.05331 4.05333 1.66665 7 1.66665C9.94666 1.66665 12.3333 4.05331 12.3333 6.99998C12.3333 9.94665 9.94666 12.3333 7 12.3333Z" fill="black" fill-opacity="0.54"/>
<path d="M7.33333 3.66665H6.33333V7.66665L9.83333 9.76665L10.3333 8.94665L7.33333 7.16665V3.66665Z" fill="black" fill-opacity="0.54"/>
</svg>
