<svg width="14" height="18" viewBox="0 0 14 18" fill="none" xmlns="http://www.w3.org/2000/svg">
<path d="M1 16C1 17.1 1.9 18 3 18H11C12.1 18 13 17.1 13 16V4H1V16ZM4.17 9.59C3.78 9.2 3.78 8.57 4.17 8.18C4.56 7.79 5.19 7.79 5.58 8.18L7 9.59L8.41 8.18C8.8 7.79 9.43 7.79 9.82 8.18C10.21 8.57 10.21 9.2 9.82 9.59L8.41 11L9.82 12.41C10.21 12.8 10.21 13.43 9.82 13.82C9.43 14.21 8.8 14.21 8.41 13.82L7 12.41L5.59 13.82C5.2 14.21 4.57 14.21 4.18 13.82C3.79 13.43 3.79 12.8 4.18 12.41L5.59 11L4.17 9.59ZM13 1H10.5L9.79 0.29C9.61 0.11 9.35 0 9.09 0H4.91C4.65 0 4.39 0.11 4.21 0.29L3.5 1H1C0.45 1 0 1.45 0 2C0 2.55 0.45 3 1 3H13C13.55 3 14 2.55 14 2C14 1.45 13.55 1 13 1Z" fill="#D32F2F"/>
</svg>
